<?xml version="1.0" encoding="UTF-8"?>
<svg version="1.1" xmlns="http://www.w3.org/2000/svg" width="512" height="512">
<path d="M0 0 C0.94340646 -0.00384115 1.88681291 -0.00768229 2.85880744 -0.01163983 C3.89721436 -0.01077335 4.93562128 -0.00990687 6.00549507 -0.00901413 C7.65788695 -0.01347081 7.65788695 -0.01347081 9.34366047 -0.01801753 C13.05395448 -0.02672489 16.7642163 -0.02821449 20.47451973 -0.02970505 C23.1269159 -0.03433173 25.77930912 -0.0393354 28.43170357 -0.04475021 C35.65063799 -0.0583359 42.86956686 -0.06435847 50.08851194 -0.06876087 C54.59474715 -0.07152259 59.10098022 -0.07575979 63.60721397 -0.08026505 C76.08025859 -0.09245745 88.55330148 -0.10275719 101.02635193 -0.10614014 C102.22393973 -0.10646949 102.22393973 -0.10646949 103.44572122 -0.10680549 C104.64619276 -0.10713291 104.64619276 -0.10713291 105.87091625 -0.10746694 C107.49269033 -0.1079104 109.1144644 -0.10835697 110.73623848 -0.10880661 C111.54069641 -0.10902804 112.34515434 -0.10924947 113.17398979 -0.10947761 C126.2134309 -0.11342689 139.25281618 -0.13088498 152.29223572 -0.15416613 C165.67509393 -0.17786793 179.0579241 -0.19034143 192.44080365 -0.19150805 C199.95665981 -0.19242542 207.4724432 -0.19819313 214.98827934 -0.21632767 C221.38721611 -0.23171279 227.7860576 -0.23685852 234.18500935 -0.22858956 C237.45046193 -0.22467752 240.71568201 -0.22726504 243.98111916 -0.23964691 C247.51984756 -0.2522808 251.05807933 -0.24653596 254.59680367 -0.23606491 C255.63074914 -0.24412132 256.66469461 -0.25217772 257.72997177 -0.26047826 C266.4968539 -0.19957688 270.35810382 2.76825104 276.50357246 8.85286331 C277.38248901 9.71206627 277.38248901 9.71206627 278.27916145 10.58862686 C280.20575063 12.47596486 282.12437819 14.37110824 284.04141426 16.26814651 C285.02746682 17.24197249 285.02746682 17.24197249 286.03343964 18.23547173 C289.50828589 21.66869999 292.97661122 25.1083708 296.4400959 28.55305862 C300.01574563 32.10652905 303.6141285 35.6360265 307.21810818 39.1607275 C309.98948885 41.8798286 312.74295844 44.61654295 315.49190521 47.35830498 C316.81090324 48.66756655 318.13664726 49.97006861 319.46920395 51.26552773 C321.33205156 53.07967122 323.16800986 54.917461 324.99966621 56.76301956 C325.5528553 57.29058853 326.10604439 57.8181575 326.67599678 58.36171341 C329.4778624 61.24177326 330.7707349 63.3563821 330.86677742 67.31900406 C330.36315898 71.69614155 328.93560005 74.46555653 326.49063301 78.00642776 C326.05388252 78.67150345 325.61713203 79.33657913 325.16714668 80.02180862 C324.16855434 81.53939174 323.16188949 83.05168222 322.14883614 84.55965042 C320.24448519 87.40590934 318.37348353 90.27240003 316.50625801 93.14314651 C313.61504719 97.5863042 310.7159506 102.02407229 307.80703926 106.45564651 C303.75336185 112.63227125 299.71277078 118.81735133 295.67813301 125.00642776 C295.06381416 125.94857132 294.44949532 126.89071487 293.81656075 127.86140823 C287.67764222 137.27861223 281.55180046 146.70430223 275.42813301 156.13142776 C268.6037467 166.63728017 261.77341926 177.13917769 254.92813301 187.63142776 C250.05057249 195.10892698 245.17335633 202.58664696 240.30313301 210.06892776 C239.78299629 210.86685745 239.26285957 211.66478714 238.72696114 212.48689651 C237.75442892 213.98192643 236.78702438 215.48030863 235.82559395 216.98250198 C234.87134948 218.44987792 233.88866761 219.89904989 232.88223457 221.3311348 C232.40495918 222.02964554 231.92768379 222.72815628 231.43594551 223.44783401 C231.00169258 224.06215286 230.56743965 224.67647171 230.12002754 225.30940628 C229.18758816 227.17312989 229.18758816 227.17312989 230.17349434 229.23616409 C231.80341832 231.69833569 233.73938059 233.34691476 235.99063301 235.25642776 C246.27488964 244.34723914 254.02290958 254.66153433 261.42813301 266.13142776 C261.80357246 266.70876663 262.17901192 267.2861055 262.56582832 267.88093948 C282.82730388 299.54534149 288.95757199 341.24947295 281.41641426 377.81111526 C275.53123389 404.22472604 264.13938813 427.63574518 246.42813301 448.13142776 C246.00129219 448.62675003 245.57445137 449.1220723 245.13467598 449.63240433 C238.80443239 456.92317848 232.17334407 463.31188044 224.42813301 469.13142776 C223.48969551 469.84685745 222.55125801 470.56228714 221.58438301 471.29939651 C188.09582398 495.68217467 146.55530506 504.92559996 105.63394356 499.36287308 C102.18788263 498.77255876 98.81351731 498.00078869 95.42813301 497.13142776 C94.67064766 496.94870316 93.91316231 496.76597855 93.13272285 496.57771683 C61.32000183 488.73242543 32.25103613 470.46027057 11.42813301 445.13142776 C11.00113106 444.61483597 10.5741291 444.09824417 10.1341877 443.56599808 C-3.57735232 426.71410535 -12.77065812 406.97330977 -18.57186699 386.13142776 C-18.90702324 384.93904495 -19.24217949 383.74666214 -19.58749199 382.51814651 C-29.0677566 343.71412223 -21.83426858 301.49305609 -1.52157402 267.38557816 C7.20303832 253.15025869 18.32801378 239.55197715 31.42813301 229.13142776 C29.91692658 224.92838489 27.8067961 221.26283135 25.42813301 217.50642776 C25.00660957 216.83547073 24.58508614 216.1645137 24.15078926 215.47322464 C19.31144846 207.83886291 14.25776478 200.34497248 9.22549629 192.83717728 C4.47299104 185.74541235 -0.20514806 178.62639401 -4.66561699 171.34627151 C-8.79623084 164.66193356 -13.19703978 158.15700987 -17.57186699 151.63142776 C-27.23648523 137.21250585 -27.23648523 137.21250585 -31.50936699 130.25642776 C-36.15146143 122.70044655 -41.01644379 115.29286535 -45.88436699 107.88142776 C-46.29578941 107.25491318 -46.70721184 106.62839859 -47.13110161 105.98289871 C-48.77189656 103.48455948 -50.41293595 100.98638115 -52.05442619 98.48849869 C-55.78171643 92.81552767 -59.49443043 87.13315362 -63.19686699 81.44392776 C-64.00377983 80.20691116 -64.00377983 80.20691116 -64.82699394 78.94490433 C-65.55535454 77.82487015 -65.55535454 77.82487015 -66.29842949 76.68220901 C-66.92612236 75.71794998 -66.92612236 75.71794998 -67.5664959 74.73421097 C-69.91983605 70.98246785 -70.34952838 67.47242609 -69.57186699 63.13142776 C-68.07897174 60.53016534 -66.08684452 58.61028135 -63.92806816 56.54768753 C-63.02821442 55.64126259 -63.02821442 55.64126259 -62.11018181 54.71652603 C-60.13041304 52.73214919 -58.12363907 50.77777795 -56.11483574 48.82283401 C-54.73036804 47.44821706 -53.3475211 46.07196597 -51.96623039 44.69415665 C-49.07181471 41.81500366 -46.16499182 38.94925263 -43.2474041 36.09358597 C-39.5042289 32.42970799 -35.78305216 28.7444772 -32.0696497 25.05045033 C-28.52923795 21.52996428 -24.97897899 18.01948349 -21.42733574 14.51033401 C-20.74881239 13.83860216 -20.07028904 13.16687031 -19.37120438 12.47478294 C-17.45409768 10.5807868 -15.53023617 8.69395723 -13.60384941 6.80940628 C-13.03488945 6.24582413 -12.46592949 5.68224197 -11.87972832 5.10158157 C-7.94222436 1.27124367 -5.43520659 0.00829914 0 0 Z M66.42813301 100.13142776 C68.73813301 103.76142776 71.04813301 107.39142776 73.42813301 111.13142776 C74.84744706 113.42145575 76.2643069 115.71300755 77.67813301 118.00642776 C84.56048571 129.0860835 91.79320725 139.94342724 98.95617867 150.84257889 C101.92704539 155.36436894 104.88733143 159.89289558 107.83438301 164.43025589 C108.8815026 166.04071555 109.93218038 167.64886831 110.98672676 169.25447464 C113.5469116 173.16403525 116.01954284 177.10070349 118.38516426 181.13142776 C119.10736153 182.33073929 119.10736153 182.33073929 119.84414864 183.55427933 C120.74618525 185.05746341 121.62565522 186.57452857 122.47696114 188.1070137 C124.13049242 190.82806478 125.2887604 192.72206282 128.35318184 193.82307816 C130.68712376 194.05042615 132.21876993 193.92308564 134.42813301 193.13142776 C136.63255614 190.71983418 137.9415855 188.86701581 139.49063301 186.06892776 C140.4301081 184.50006139 141.37162624 182.93241719 142.31485176 181.36580276 C142.81291328 180.51953323 143.31097481 179.6732637 143.8241291 178.80134964 C146.67804876 174.05089829 149.75536187 169.44637669 152.80313301 164.81892776 C154.09053908 162.84819239 155.37699799 160.87683796 156.66250801 158.90486526 C157.2935041 157.93774612 157.9245002 156.97062698 158.57461739 155.9742012 C161.40485147 151.63341542 164.22958796 147.28906658 167.05313301 142.94392776 C167.57786201 142.13657181 168.10259102 141.32921585 168.6432209 140.49739456 C171.3793868 136.28677436 174.11364217 132.07492286 176.84610176 127.86189651 C177.97750767 126.11833911 179.10901652 124.3748485 180.24063301 122.63142776 C180.7805085 121.79933792 181.32038399 120.96724808 181.87661934 120.10994339 C185.57482594 114.41916612 189.32520655 108.76770079 193.13516426 103.15095901 C194.51799841 101.39072616 194.51799841 101.39072616 194.42813301 100.13142776 C152.18813301 100.13142776 109.94813301 100.13142776 66.42813301 100.13142776 Z " fill="#FEAA00" transform="translate(125.57186698913574,2.868572235107422)"/>
<path d="M0 0 C0.94340646 -0.00384115 1.88681291 -0.00768229 2.85880744 -0.01163983 C3.89721436 -0.01077335 4.93562128 -0.00990687 6.00549507 -0.00901413 C7.65788695 -0.01347081 7.65788695 -0.01347081 9.34366047 -0.01801753 C13.05395448 -0.02672489 16.7642163 -0.02821449 20.47451973 -0.02970505 C23.1269159 -0.03433173 25.77930912 -0.0393354 28.43170357 -0.04475021 C35.65063799 -0.0583359 42.86956686 -0.06435847 50.08851194 -0.06876087 C54.59474715 -0.07152259 59.10098022 -0.07575979 63.60721397 -0.08026505 C76.08025859 -0.09245745 88.55330148 -0.10275719 101.02635193 -0.10614014 C102.22393973 -0.10646949 102.22393973 -0.10646949 103.44572122 -0.10680549 C104.64619276 -0.10713291 104.64619276 -0.10713291 105.87091625 -0.10746694 C107.49269033 -0.1079104 109.1144644 -0.10835697 110.73623848 -0.10880661 C111.54069641 -0.10902804 112.34515434 -0.10924947 113.17398979 -0.10947761 C126.2134309 -0.11342689 139.25281618 -0.13088498 152.29223572 -0.15416613 C165.67509393 -0.17786793 179.0579241 -0.19034143 192.44080365 -0.19150805 C199.95665981 -0.19242542 207.4724432 -0.19819313 214.98827934 -0.21632767 C221.38721611 -0.23171279 227.7860576 -0.23685852 234.18500935 -0.22858956 C237.45046193 -0.22467752 240.71568201 -0.22726504 243.98111916 -0.23964691 C247.51984756 -0.2522808 251.05807933 -0.24653596 254.59680367 -0.23606491 C255.63074914 -0.24412132 256.66469461 -0.25217772 257.72997177 -0.26047826 C266.4968539 -0.19957688 270.35810382 2.76825104 276.50357246 8.85286331 C277.38248901 9.71206627 277.38248901 9.71206627 278.27916145 10.58862686 C280.20575063 12.47596486 282.12437819 14.37110824 284.04141426 16.26814651 C285.02746682 17.24197249 285.02746682 17.24197249 286.03343964 18.23547173 C289.50828589 21.66869999 292.97661122 25.1083708 296.4400959 28.55305862 C300.01574563 32.10652905 303.6141285 35.6360265 307.21810818 39.1607275 C309.98948885 41.8798286 312.74295844 44.61654295 315.49190521 47.35830498 C316.81090324 48.66756655 318.13664726 49.97006861 319.46920395 51.26552773 C321.33205156 53.07967122 323.16800986 54.917461 324.99966621 56.76301956 C325.5528553 57.29058853 326.10604439 57.8181575 326.67599678 58.36171341 C329.4778624 61.24177326 330.7707349 63.3563821 330.86677742 67.31900406 C330.36315898 71.69614155 328.93560005 74.46555653 326.49063301 78.00642776 C326.05388252 78.67150345 325.61713203 79.33657913 325.16714668 80.02180862 C324.16855434 81.53939174 323.16188949 83.05168222 322.14883614 84.55965042 C320.24448519 87.40590934 318.37348353 90.27240003 316.50625801 93.14314651 C313.61504719 97.5863042 310.7159506 102.02407229 307.80703926 106.45564651 C303.75336185 112.63227125 299.71277078 118.81735133 295.67813301 125.00642776 C295.06381416 125.94857132 294.44949532 126.89071487 293.81656075 127.86140823 C287.67764222 137.27861223 281.55180046 146.70430223 275.42813301 156.13142776 C267.97450383 167.60597282 260.51198033 179.07461545 253.03433418 190.53352737 C249.95154144 195.25861152 246.87165866 199.9855362 243.79922676 204.71736526 C243.2204377 205.60875198 242.64164864 206.5001387 242.04532051 207.41853714 C240.96799626 209.0783681 239.89113209 210.73849783 238.81485176 212.39900589 C235.39341265 217.67072326 231.92548201 222.90977199 228.42813301 228.13142776 C224.74835101 226.72639252 222.11761164 225.23520399 219.05313301 222.75642776 C204.9157972 212.30128603 188.38649608 204.65365792 171.42813301 200.13142776 C170.70351875 199.9361348 169.9789045 199.74084183 169.23233223 199.53963089 C157.42292742 196.44600952 145.57810171 195.09530837 133.42813301 194.13142776 C137.12634207 187.04997016 141.45395114 180.44074644 145.9244709 173.83089066 C147.9592297 170.82108245 149.98159645 167.80299367 152.00235176 164.78377151 C152.39655312 164.1948613 152.79075447 163.60595108 153.19690132 162.9991951 C156.02659251 158.76024941 158.76843376 154.47848245 161.42813301 150.13142776 C166.62810719 141.64683039 172.19869791 133.40626658 177.74649239 125.14705276 C183.07705893 117.20051656 188.25102453 109.18470762 193.42813301 101.13142776 C151.84813301 101.13142776 110.26813301 101.13142776 67.42813301 101.13142776 C70.72813301 106.08142776 74.02813301 111.03142776 77.42813301 116.13142776 C79.16563164 118.79353237 80.89803153 121.45675301 82.61563301 124.13142776 C86.99012319 130.91627001 91.39056259 137.68379123 95.80313301 144.44392776 C102.17083569 154.201555 108.52941495 163.96500895 114.87295723 173.73836136 C116.47313592 176.20067714 118.07734442 178.6603345 119.68203926 181.11970901 C120.70162915 182.6860771 121.72116292 184.25248171 122.74063301 185.81892776 C123.45267891 186.90729935 123.45267891 186.90729935 124.17910957 188.01765823 C127.42813301 193.01812744 127.42813301 193.01812744 127.42813301 194.13142776 C126.15582832 194.21779495 124.88352364 194.30416214 123.57266426 194.39314651 C92.97897773 196.73002153 62.99004294 206.00531452 38.60147285 225.22224808 C37.26114234 226.26103577 35.84943834 227.20651862 34.42813301 228.13142776 C31.09063307 227.01892778 30.8588057 226.6779187 29.14297676 223.82674026 C28.70388985 223.11171341 28.26480293 222.39668655 27.81241035 221.65999222 C27.33497383 220.86681595 26.85753731 220.07363968 26.36563301 219.25642776 C21.19498287 210.85799398 15.80236534 202.62867983 10.30313301 194.44392776 C5.18775594 186.81898454 0.13137949 179.17543668 -4.66610527 171.34553909 C-8.79647092 164.66139645 -13.19720551 158.15676266 -17.57186699 151.63142776 C-27.23648523 137.21250585 -27.23648523 137.21250585 -31.50936699 130.25642776 C-36.15146143 122.70044655 -41.01644379 115.29286535 -45.88436699 107.88142776 C-46.29578941 107.25491318 -46.70721184 106.62839859 -47.13110161 105.98289871 C-48.77189656 103.48455948 -50.41293595 100.98638115 -52.05442619 98.48849869 C-55.78171643 92.81552767 -59.49443043 87.13315362 -63.19686699 81.44392776 C-64.00377983 80.20691116 -64.00377983 80.20691116 -64.82699394 78.94490433 C-65.55535454 77.82487015 -65.55535454 77.82487015 -66.29842949 76.68220901 C-66.92612236 75.71794998 -66.92612236 75.71794998 -67.5664959 74.73421097 C-69.91983605 70.98246785 -70.34952838 67.47242609 -69.57186699 63.13142776 C-68.07897174 60.53016534 -66.08684452 58.61028135 -63.92806816 56.54768753 C-63.02821442 55.64126259 -63.02821442 55.64126259 -62.11018181 54.71652603 C-60.13041304 52.73214919 -58.12363907 50.77777795 -56.11483574 48.82283401 C-54.73036804 47.44821706 -53.3475211 46.07196597 -51.96623039 44.69415665 C-49.07181471 41.81500366 -46.16499182 38.94925263 -43.2474041 36.09358597 C-39.5042289 32.42970799 -35.78305216 28.7444772 -32.0696497 25.05045033 C-28.52923795 21.52996428 -24.97897899 18.01948349 -21.42733574 14.51033401 C-20.74881239 13.83860216 -20.07028904 13.16687031 -19.37120438 12.47478294 C-17.45409768 10.5807868 -15.53023617 8.69395723 -13.60384941 6.80940628 C-13.03488945 6.24582413 -12.46592949 5.68224197 -11.87972832 5.10158157 C-7.94222436 1.27124367 -5.43520659 0.00829914 0 0 Z " fill="#C1272C" transform="translate(125.57186698913574,2.868572235107422)"/>
<path d="M0 0 C1.67153012 1.45275633 3.33883336 2.91040474 5 4.375 C5.6084375 4.84035156 6.216875 5.30570312 6.84375 5.78515625 C25.60229938 20.25224504 36.47401641 45.98209025 40.5859375 68.59765625 C43.78205888 97.75472581 37.2662466 124.68477949 20 148.375 C17.15465668 151.87506765 14.14102675 155.14029351 11 158.375 C10.32710937 159.12136719 9.65421875 159.86773437 8.9609375 160.63671875 C-6.81282052 177.56249281 -32.10613782 189.39588092 -55.27148438 190.48144531 C-87.74438287 191.28751017 -115.34849726 183.10275083 -139.31201172 160.5144043 C-158.67297835 141.67226777 -170.83664933 115.6887203 -171.29223633 88.51635742 C-171.4590167 60.6037528 -163.63781433 35.54610949 -145 14.375 C-144.21625 13.34375 -143.4325 12.3125 -142.625 11.25 C-138.51950688 6.75350754 -133.80301559 3.0997876 -129 -0.625 C-127.84177734 -1.54152344 -127.84177734 -1.54152344 -126.66015625 -2.4765625 C-115.6589498 -10.71336323 -102.2843289 -16.3427861 -89 -19.625 C-88.12214844 -19.84929687 -87.24429688 -20.07359375 -86.33984375 -20.3046875 C-57.07440967 -26.45253408 -23.24760173 -18.91654168 0 0 Z " fill="#FFE100" transform="translate(321,265.625)"/>
<path d="M0 0 C2.23968855 1.84529525 4.24318548 3.65540075 6.28076172 5.69970703 C7.17452766 6.5733213 7.17452766 6.5733213 8.08634949 7.46458435 C10.04479905 9.38516356 11.98793299 11.32036511 13.9296875 13.2578125 C15.28845407 14.60372002 16.6475182 15.9493272 18.00686646 17.29464722 C20.84995504 20.11381503 23.68468288 22.94109972 26.51464844 25.7734375 C30.13958156 29.39877759 33.79127317 32.9957964 37.45063591 36.58633614 C40.26447323 39.35567618 43.05991814 42.14303072 45.85052872 44.93575668 C47.18932953 46.26984204 48.53461106 47.59745682 49.88644028 48.91833878 C51.7757497 50.76839269 53.63794525 52.64216647 55.49560547 54.52392578 C56.05657425 55.06241653 56.61754303 55.60090729 57.19551086 56.15571594 C60.00883674 59.06258633 61.34633934 61.19939992 61.44338989 65.19430542 C60.9341335 69.56534394 59.50485239 72.33791537 57.0625 75.875 C56.62574951 76.54007568 56.18899902 77.20515137 55.73901367 77.89038086 C54.74042133 79.40796398 53.73375648 80.92025445 52.72070312 82.42822266 C50.81635218 85.27448157 48.94535052 88.14097227 47.078125 91.01171875 C44.18691418 95.45487643 41.28781758 99.89264453 38.37890625 104.32421875 C34.32522884 110.50084348 30.28463777 116.68592357 26.25 122.875 C25.63568115 123.81714355 25.0213623 124.75928711 24.38842773 125.72998047 C18.24950921 135.14718447 12.12366745 144.57287446 6 154 C-1.45362918 165.47454505 -8.91615268 176.94318769 -16.39379883 188.40209961 C-19.47659157 193.12718375 -22.55647435 197.85410843 -25.62890625 202.5859375 C-26.20769531 203.47732422 -26.78648437 204.36871094 -27.3828125 205.28710938 C-28.46013675 206.94694034 -29.53700092 208.60707006 -30.61328125 210.26757812 C-34.03472036 215.53929549 -37.502651 220.77834423 -41 226 C-44.679782 224.59496476 -47.31052137 223.10377623 -50.375 220.625 C-64.51233581 210.16985827 -81.04163693 202.52223015 -98 198 C-98.72461426 197.80470703 -99.44922852 197.60941406 -100.19580078 197.40820312 C-112.00520559 194.31458176 -123.8500313 192.96388061 -136 192 C-132.30179094 184.9185424 -127.97418187 178.30931867 -123.50366211 171.69946289 C-121.46890331 168.68965468 -119.44653656 165.67156591 -117.42578125 162.65234375 C-117.0315799 162.06343353 -116.63737854 161.47452332 -116.23123169 160.86776733 C-113.4015405 156.62882164 -110.65969925 152.34705469 -108 148 C-102.75665792 139.4446409 -97.13075898 131.1421347 -91.54760742 122.80688477 C-87.58188714 116.8843793 -83.63612856 110.95321559 -79.8125 104.9375 C-77.49201733 101.29295082 -75.12682172 97.70987836 -72.625 94.1875 C-68.03886994 87.71853214 -63.80539697 81.02123029 -59.51660156 74.35351562 C-56.93893416 70.35340072 -54.34446321 66.36423399 -51.75 62.375 C-51.21165527 61.54693848 -50.67331055 60.71887695 -50.11865234 59.86572266 C-45.91816147 53.40674445 -41.70977216 46.95293148 -37.5 40.5 C-32.6224585 33.02248835 -27.74522333 25.54478083 -22.875 18.0625 C-22.35486328 17.26457031 -21.83472656 16.46664063 -21.29882812 15.64453125 C-20.80576172 14.8865625 -20.31269531 14.12859375 -19.8046875 13.34765625 C-19.09856323 12.26291016 -19.09856323 12.26291016 -18.37817383 11.15625 C-16.58570593 8.35180776 -14.87095112 5.50210443 -13.17407227 2.63891602 C-9.41763317 -2.60478863 -5.36820214 -2.36606215 0 0 Z " fill="#C1272C" transform="translate(395,5)"/>
<path d="M0 0 C87.78 0 175.56 0 266 0 C262 3 262 3 260 3 C259.59624146 4.09175537 259.59624146 4.09175537 259.18432617 5.20556641 C258.02244466 7.94704152 256.68950781 10.22997876 255.05078125 12.7109375 C254.45765137 13.61416748 253.86452148 14.51739746 253.25341797 15.44799805 C252.61291504 16.41390869 251.97241211 17.37981934 251.3125 18.375 C249.94650087 20.45174813 248.58061873 22.52857321 247.21484375 24.60546875 C246.51472168 25.66685059 245.81459961 26.72823242 245.09326172 27.82177734 C241.83688316 32.76597329 238.60627979 37.72688011 235.375 42.6875 C234.12242073 44.60808915 232.86981679 46.52866222 231.6171875 48.44921875 C227.71808285 54.43054064 223.82745015 60.41734896 219.93774414 66.40478516 C215.56897718 73.12814293 211.19213655 79.84621828 206.8125 86.5625 C206.16410156 87.55701172 205.51570312 88.55152344 204.84765625 89.57617188 C204.244375 90.50107422 203.64109375 91.42597656 203.01953125 92.37890625 C202.48432861 93.1994751 201.94912598 94.02004395 201.39770508 94.86547852 C200.27342237 96.58243986 199.13841561 98.29237658 198 100 C195.77113247 100.4417696 195.77113247 100.4417696 192.93858337 100.53572083 C191.86656174 100.57741898 190.7945401 100.61911713 189.69003296 100.66207886 C188.50833527 100.6921402 187.32663757 100.72220154 186.10913086 100.75317383 C184.86818161 100.79537552 183.62723236 100.83757721 182.34867859 100.88105774 C170.85846922 101.24589938 159.36176435 101.44627158 147.86685848 101.59351063 C139.38065191 101.70416762 130.90572041 101.89941976 122.42442793 102.21011716 C116.44728566 102.42157148 110.47317731 102.53092244 104.49244791 102.56831187 C100.92623565 102.59343246 97.37381257 102.66122041 93.81175041 102.84067726 C72.35288793 103.87416816 72.35288793 103.87416816 65.17592239 97.48650742 C59.86359217 91.47021077 56.19127755 84.39086663 52.65461922 77.2320919 C50.20810359 72.45312931 47.25599862 68.06434296 44.25 63.625 C43.19738494 62.0111556 42.14750335 60.39552172 41.1015625 58.77734375 C36.87378256 52.26517737 32.64436796 45.75408034 28.41015625 39.24609375 C25.95428835 35.47089228 23.50534013 31.69127513 21.05859375 27.91015625 C19.72663067 25.85672661 18.39460067 23.80334038 17.0625 21.75 C16.44777832 20.79762451 15.83305664 19.84524902 15.19970703 18.86401367 C8.68076943 8.46531615 8.68076943 8.46531615 0 0 Z " fill="#981F2C" transform="translate(123,3)"/>
<path d="M0 0 C6.98174599 5.67076312 10.12864292 11.67681507 11.48828125 20.5 C11.90801382 27.58607345 9.32033825 33.50186972 4.80859375 38.8671875 C1.68666317 41.48089683 -1.52178218 43.81327882 -4.87890625 46.1171875 C-3.68265625 46.6740625 -2.48640625 47.2309375 -1.25390625 47.8046875 C5.63140598 51.2838382 9.75140721 55.25301121 13.12109375 62.1171875 C15.74936833 70.68083712 14.1997942 79.22539998 10.125 87.0234375 C5.18631994 94.81595691 -3.12341112 98.99325413 -11.87890625 101.1171875 C-27.0577607 104.11547974 -40.64999328 101.95726386 -53.87890625 94.1171875 C-56.24503729 92.51229124 -57.24326638 91.54035768 -58.87890625 89.1171875 C-59.3663463 83.75534697 -56.0517336 79.87900414 -52.76953125 75.9296875 C-50.87890625 74.1171875 -50.87890625 74.1171875 -47.94140625 73.2421875 C-44.40346047 74.25302915 -41.8567435 75.83844404 -38.81640625 77.87109375 C-33.85845675 81.05977498 -28.67266726 81.81027293 -22.87890625 81.1171875 C-18.72040222 80.16497191 -15.74525584 79.09183078 -12.87890625 75.8671875 C-11.11629956 71.02001911 -11.22965016 67.58507084 -13.31640625 62.8671875 C-18.49141997 57.31351424 -25.4202588 56.80132645 -32.71484375 56.5234375 C-34.87890625 56.1171875 -34.87890625 56.1171875 -36.6484375 54.99609375 C-38.48340781 52.19412322 -38.23950383 49.86602102 -38.19140625 46.5546875 C-38.18753906 45.39839844 -38.18367188 44.24210937 -38.1796875 43.05078125 C-37.87890625 40.1171875 -37.87890625 40.1171875 -35.87890625 38.1171875 C-33.97541402 37.7324997 -32.05452949 37.43116815 -30.12890625 37.1796875 C-25.53859999 36.47518006 -21.82282786 35.71187277 -17.87890625 33.1171875 C-15.65625754 29.78321444 -15.58215162 28.52203859 -15.56640625 24.6171875 C-15.54964844 23.658125 -15.53289062 22.6990625 -15.515625 21.7109375 C-15.93297465 18.73115077 -16.52134038 17.90687254 -18.87890625 16.1171875 C-23.09457953 14.00935086 -28.30367006 14.58884327 -32.87890625 15.1171875 C-35.43193615 16.20698832 -37.56683086 17.44407162 -39.84375 19.0234375 C-42.50967148 20.45617841 -43.89242935 20.6797245 -46.87890625 20.1171875 C-49.37109375 17.88671875 -49.37109375 17.88671875 -51.75390625 14.9296875 C-52.95660156 13.48529297 -52.95660156 13.48529297 -54.18359375 12.01171875 C-55.87890625 9.1171875 -55.87890625 9.1171875 -55.98046875 6.48046875 C-53.63345731 1.4452137 -47.63811144 -0.5032099 -42.87890625 -2.8828125 C-42.16476563 -3.25019531 -41.450625 -3.61757813 -40.71484375 -3.99609375 C-28.59287158 -9.09118564 -10.73854821 -7.02303967 0 0 Z " fill="#FFAA00" transform="translate(276.87890625,300.8828125)"/>
</svg>
